<svg id="Capa_1" enable-background="new 0 0 512 512" height="512" viewBox="0 0 512 512" width="512" xmlns="http://www.w3.org/2000/svg"><g><path d="m128.848 272c-8.284 0-15-6.716-15-15v-123.924c0-29.267 23.81-53.076 53.076-53.076s53.076 23.81 53.076 53.076v16.924c0 11.028 8.972 20 20 20s20-8.972 20-20v-69c0-44.663 36.337-81 81-81s81 36.337 81 81v146c0 8.284-6.716 15-15 15s-15-6.716-15-15v-146c0-28.121-22.879-51-51-51s-51 22.879-51 51v69c0 27.57-22.43 50-50 50s-50-22.43-50-50v-16.924c0-12.724-10.352-23.076-23.076-23.076s-23.076 10.352-23.076 23.076v123.924c0 8.284-6.716 15-15 15z" fill="#525cdd"/><g><g><g><g><path d="m250.348 406.689-13.599-7.852c1.446-7.162 2.175-14.469 2.175-21.838s-.729-14.676-2.175-21.838l13.599-7.852c3.445-1.989 5.959-5.265 6.989-9.108s.491-7.937-1.499-11.382l-20-34.641c-4.142-7.174-13.315-9.632-20.49-5.49l-13.602 7.853c-11.053-9.795-23.856-17.194-37.821-21.856v-15.685c0-8.284-6.716-15-15-15h-40c-8.284 0-15 6.716-15 15v15.686c-13.965 4.662-26.769 12.061-37.822 21.856l-13.601-7.853c-7.174-4.144-16.349-1.685-20.49 5.49l-20 34.641c-4.142 7.174-1.684 16.348 5.49 20.49l13.598 7.851c-1.446 7.163-2.176 14.47-2.176 21.838s.729 14.676 2.176 21.838l-13.598 7.851c-7.174 4.142-9.632 13.316-5.49 20.49l20 34.641c4.142 7.175 13.315 9.633 20.49 5.49l13.601-7.853c11.053 9.796 23.856 17.194 37.822 21.856v15.688c0 8.284 6.716 15 15 15h40c8.284 0 15-6.716 15-15v-15.686c13.965-4.662 26.768-12.061 37.821-21.856l13.602 7.853c7.174 4.142 16.348 1.683 20.49-5.49l20-34.641c1.989-3.445 2.528-7.54 1.499-11.382-1.029-3.843-3.544-7.12-6.989-9.109zm-121.424 10.311c-22.091 0-40-17.909-40-40s17.909-40 40-40 40 17.909 40 40-17.909 40-40 40z" fill="#e2dff4"/></g><path d="m257.261 338.203c1.03-3.843.491-7.937-1.499-11.382l-20-34.641c-4.142-7.174-13.315-9.632-20.49-5.49l-13.602 7.853c-11.053-9.795-23.856-17.194-37.821-21.856v-15.687c0-8.284-6.716-15-15-15h-20.001v95c22.091 0 40 17.909 40 40s-17.909 40-40 40v95h20.001c8.284 0 15-6.716 15-15v-15.686c13.965-4.662 26.768-12.061 37.821-21.856l13.602 7.853c7.174 4.142 16.348 1.683 20.49-5.49l20-34.641c1.989-3.445 2.528-7.54 1.499-11.382-1.029-3.843-3.543-7.119-6.989-9.108l-13.599-7.852c1.446-7.162 2.175-14.469 2.175-21.838s-.729-14.676-2.175-21.838l13.599-7.852c3.445-1.988 5.96-5.265 6.989-9.107z" fill="#bebcdd"/></g><g><path d="m128.848 432c-30.327 0-55-24.673-55-55s24.673-55 55-55 55 24.673 55 55-24.673 55-55 55zm0-80c-13.785 0-25 11.215-25 25s11.215 25 25 25 25-11.215 25-25-11.215-25-25-25z" fill="#f1f1f4"/></g><path d="m153.848 377c0 13.785-11.215 25-25 25v30c30.327 0 55-24.673 55-55s-24.673-55-55-55v30c13.785 0 25 11.215 25 25z" fill="#e2dff4"/></g></g><path d="m302 317v90c0 57.99 47.01 105 105 105 57.99 0 105-47.01 105-105v-90l-105-30z" fill="#e2dff4"/><path d="m407 287v225c57.99 0 105-47.01 105-105v-90z" fill="#bebcdd"/><path d="m407 212c-57.99 0-105 47.01-105 105h210c0-57.99-47.01-105-105-105z" fill="#f1f1f4"/><path d="m512 317c0-57.99-47.01-105-105-105v105z" fill="#e2dff4"/><path d="m407 352c-8.284 0-15-6.716-15-15v-40c0-8.284 6.716-15 15-15s15 6.716 15 15v40c0 8.284-6.716 15-15 15z" fill="#bebcdd"/><path d="m407 282v70c8.284 0 15-6.716 15-15v-40c0-8.284-6.716-15-15-15z" fill="#aaa5d3"/></g></svg>